<svg width="61" height="61" viewBox="0 0 61 61" fill="none" xmlns="http://www.w3.org/2000/svg">
<path d="M30.3809 60.75C46.9494 60.75 60.3809 47.3185 60.3809 30.75C60.3809 14.1815 46.9494 0.75 30.3809 0.75C13.8123 0.75 0.380859 14.1815 0.380859 30.75C0.380859 47.3185 13.8123 60.75 30.3809 60.75Z" fill="url(#paint0_linear_18_71)"/>
<g filter="url(#filter0_d_18_71)">
<path d="M25.6039 34.1984C25.3701 34.1984 25.203 34.1984 25.0193 34.1984C23.5828 34.1984 22.1463 34.1984 20.7099 34.1984C19.8413 34.1984 19.5741 33.9464 19.5741 33.0895C19.5573 31.0902 19.5573 29.074 19.5741 27.0747C19.5741 26.201 19.8413 25.9658 20.7099 25.9658C22.1463 25.9658 23.5828 25.9658 25.0193 25.9658C25.203 25.9658 25.3701 25.9658 25.6039 25.9658C25.6039 25.7306 25.6039 25.529 25.6039 25.3441C25.6373 23.4792 25.5705 22.5975 25.7208 20.7325C26.1217 16.045 29.6962 12.6511 34.3731 12.4663C36.3273 12.3991 38.2983 12.4327 40.2526 12.4327C40.904 12.4327 41.188 12.7183 41.188 13.3568C41.2047 15.3057 41.2047 17.2715 41.188 19.2204C41.188 19.8925 40.9207 20.1613 40.2025 20.1781C38.8829 20.2117 37.5634 20.2117 36.2271 20.2285C34.6904 20.2453 34.0724 20.8333 34.0557 22.379C34.0223 23.8408 34.0557 24.3025 34.0557 25.8146C34.2561 25.8314 34.4232 25.8482 34.5902 25.8482C36.2939 25.8482 37.981 25.8482 39.6847 25.8482C40.737 25.8482 40.9708 26.1002 40.9875 27.1587C40.9875 29.0908 40.9875 31.0398 40.9875 32.9719C40.9875 33.8792 40.7704 34.1144 39.8684 34.1144C38.1313 34.1144 36.4109 34.1144 34.6737 34.1144C34.49 34.1144 34.323 34.1144 34.0557 34.1144C34.0557 34.3496 34.0557 34.5512 34.0557 34.7696C34.0557 39.9276 34.0557 42.4055 34.0557 47.5803C34.0557 48.9076 33.872 49.0756 32.5524 49.0756C30.7151 49.0756 28.8944 49.0756 27.0571 49.0756C25.7542 49.0756 25.5705 48.9076 25.5705 47.6139C25.5705 42.4559 25.5705 39.978 25.5705 34.8032C25.6039 34.6352 25.6039 34.4336 25.6039 34.1984Z" fill="white"/>
</g>
<defs>
<filter id="filter0_d_18_71" x="15.5615" y="12.4243" width="29.639" height="44.6514" filterUnits="userSpaceOnUse" color-interpolation-filters="sRGB">
<feFlood flood-opacity="0" result="BackgroundImageFix"/>
<feColorMatrix in="SourceAlpha" type="matrix" values="0 0 0 0 0 0 0 0 0 0 0 0 0 0 0 0 0 0 127 0" result="hardAlpha"/>
<feOffset dy="4"/>
<feGaussianBlur stdDeviation="2"/>
<feComposite in2="hardAlpha" operator="out"/>
<feColorMatrix type="matrix" values="0 0 0 0 0.223333 0 0 0 0 0.582337 0 0 0 0 0.8 0 0 0 1 0"/>
<feBlend mode="normal" in2="BackgroundImageFix" result="effect1_dropShadow_18_71"/>
<feBlend mode="normal" in="SourceGraphic" in2="effect1_dropShadow_18_71" result="shape"/>
</filter>
<linearGradient id="paint0_linear_18_71" x1="8.59061" y1="51.1661" x2="54.5258" y2="8.123" gradientUnits="userSpaceOnUse">
<stop stop-color="#0783D6"/>
<stop offset="1" stop-color="#4EE8FF"/>
</linearGradient>
</defs>
</svg>
